# ProBuilder 6.0.9
# https://unity3d.com/unity/features/worldbuilding/probuilder
# 26.09.2026 23:48:55

mtllib ./House.mtl
o House

g House
v -26.37549 2.495734 5.404012
v -26.37549 2.595734 5.404012
v -22.37549 2.495734 -0.1959982
v -26.37549 2.595734 -0.1959982
v -26.37549 2.495734 -0.1959982
v -26.47549 2.495734 5.404012
v -26.47549 2.595734 5.404012
v -32.37549 2.495734 5.404012
v -32.37549 2.595734 5.404012
v -26.47549 2.495734 -0.1959982
v -32.37549 2.495734 -0.1959982
v -38.37549 2.495734 5.404012
v -19.37549 2.495734 4.904012
v -19.37549 2.495734 5.404012
v -22.37549 2.595734 5.404012
v -26.37549 2.495734 4.904012
v -22.37549 2.495734 5.404012
v -22.37549 2.495734 4.904012
v -26.37549 4.045744 4.904012
v -26.47549 4.045744 4.904012
v -32.37549 2.495734 4.904012
v -26.47549 2.495734 4.904012
v -38.37549 2.495734 4.904012
v -38.37549 2.595734 4.904012
v -19.37549 2.495734 3.904012
v -22.37549 2.595734 4.904012
v -26.37549 2.595734 4.904012
v -26.37549 2.495734 3.904012
v -22.37549 2.495734 3.904012
v -26.47549 2.595734 4.904012
v -32.37549 2.595734 4.904012
v -26.37549 2.595734 3.904012
v -26.47549 2.595734 3.904012
v -32.37549 2.495734 3.904012
v -26.47549 2.495734 3.904012
v -19.47549 2.495734 5.404012
v -19.47549 4.045744 4.904012
v -19.37549 4.045744 4.904012
v -19.47549 2.495734 4.904012
v -19.47549 4.045744 3.904012
v -19.37549 4.045744 3.904012
v -19.47549 2.495734 3.904012
v -22.27549 2.495734 5.404012
v -22.27549 2.595734 5.404012
v -22.27549 2.495734 1.404012
v -19.47549 2.495734 1.404012
v -22.37549 4.045744 4.904012
v -22.27549 4.045744 4.904012
v -22.27549 2.595734 4.904012
v -19.47549 2.595734 4.904012
v -19.47549 2.595734 5.404012
v -22.27549 2.495734 4.904012
v -22.37549 2.595734 3.904012
v -22.27549 2.595734 3.904012
v -19.47549 2.595734 3.904012
v -22.27549 2.495734 3.904012
v -38.37549 2.495734 3.904012
v -38.37549 2.495734 1.504011
v -19.37549 2.495734 1.504011
v -19.37549 2.595734 1.404012
v -19.37549 2.495734 1.404012
v -22.37549 2.595734 1.504011
v -26.37549 2.595734 1.504011
v -26.37549 2.495734 1.404012
v -26.37549 2.495734 1.504011
v -22.37549 2.495734 1.504011
v -22.37549 2.495734 1.404012
v -26.47549 2.595734 1.504011
v -32.37549 2.595734 1.504011
v -32.37549 2.595734 3.904012
v -26.47549 4.045744 1.404012
v -26.37549 4.045744 1.404012
v -26.37549 4.045744 1.504011
v -26.37549 4.045744 3.904012
v -26.47549 4.045744 3.904012
v -26.47549 4.045744 1.504011
v -32.37549 2.495734 1.404012
v -32.37549 2.495734 1.504011
v -26.47549 2.495734 1.504011
v -26.47549 2.495734 1.404012
v -19.47549 4.045744 1.404012
v -19.37549 4.045744 1.404012
v -19.37549 4.045744 1.504011
v -19.47549 4.045744 1.504011
v -19.47549 2.495734 1.504011
v -22.37549 4.045744 1.404012
v -22.27549 4.045744 1.404012
v -22.27549 4.045744 1.504011
v -22.27549 4.045744 3.904012
v -22.37549 4.045744 3.904012
v -22.37549 4.045744 1.504011
v -19.47549 2.595734 1.504011
v -22.27549 2.595734 1.504011
v -22.27549 2.495734 1.504011
v -32.47549 2.495734 5.404012
v -32.47549 2.595734 5.404012
v -32.47549 2.495734 -0.1959982
v -32.47549 4.045744 4.904012
v -32.37549 4.045744 4.904012
v -32.47549 2.495734 4.904012
v -32.47549 2.595734 3.904012
v -32.47549 2.595734 4.904012
v -32.47549 2.495734 3.904012
v -32.37549 4.045744 1.404012
v -32.37549 4.045744 1.504011
v -32.37549 4.045744 3.904012
v -32.47549 4.045744 3.904012
v -32.47549 2.495734 1.504011
v -32.47549 2.495734 1.404012
v -38.27549 2.495734 5.404012
v -38.27549 2.595734 5.404012
v -38.37549 2.595734 5.404012
v -38.27549 2.495734 1.404012
v -38.37549 2.495734 1.404012
v -38.37549 4.045744 4.904012
v -38.27549 4.045744 4.904012
v -38.27549 2.595734 4.904012
v -38.27549 2.495734 4.904012
v -38.37549 4.045744 3.904012
v -38.27549 4.045744 3.904012
v -38.27549 2.595734 3.904012
v -38.27549 2.495734 3.904012
v -38.37549 4.045744 1.404012
v -38.27549 4.045744 1.404012
v -32.47549 4.045744 1.404012
v -32.47549 4.045744 1.504011
v -38.37549 4.045744 1.504011
v -38.27549 4.045744 1.504011
v -38.27549 2.595734 1.504011
v -32.47549 2.595734 1.504011
v -38.27549 2.495734 1.504011
v -22.37549 2.595734 1.404012
v -26.37549 2.595734 1.404012
v -22.37549 2.595734 -0.09599781
v -26.37549 2.595734 -0.09599781
v -26.37549 2.495734 -0.09599781
v -22.37549 2.495734 -0.09599781
v -26.37549 4.045744 -0.09599781
v -26.47549 2.595734 1.404012
v -32.37549 2.595734 1.404012
v -26.47549 2.595734 -0.09599781
v -32.37549 2.595734 -0.09599781
v -26.47549 2.495734 -0.09599781
v -32.37549 2.495734 -0.09599781
v -32.37549 4.045744 -0.09599781
v -32.47549 4.045744 -0.09599781
v -32.47549 2.495734 -0.09599781
v -22.27549 2.495734 -0.09599781
v -22.27549 4.045744 -0.09599781
v -22.27549 2.495734 -0.1959982
v -22.27549 4.045744 -0.1959982
v -22.37549 2.595734 -0.1959982
v -22.37549 4.045744 -0.09599781
v -22.37549 4.045744 -0.1959982
v -26.37549 4.045744 -0.1959982
v -26.47549 4.045744 -0.09599781
v -26.47549 4.045744 -0.1959982
v -32.37549 2.595734 -0.1959982
v -32.37549 4.045744 -0.1959982
v -32.47549 4.045744 -0.1959982
v -32.47549 2.595734 -0.09599781
v -32.47549 2.595734 -0.1959982
v -32.37549 4.045744 5.404012
v -32.47549 4.045744 5.404012
v -22.27549 4.045744 5.404012
v -22.37549 4.045744 5.404012
v -26.37549 4.045744 5.404012
v -26.47549 4.045744 5.404012
v -32.37549 3.845735 -0.09599781
v -26.47549 3.845735 -0.09599781
v -26.37549 3.845735 -0.1959982
v -32.37549 3.845735 -0.1959982
v -26.47549 2.595734 -0.1959982
v -26.47549 3.845735 -0.1959982
v -26.37549 3.845735 3.904012
v -26.37549 3.845735 1.504011
v -26.47549 3.845735 3.904012
v -26.47549 3.845735 4.904021
v -26.37549 3.845735 4.904021
v -26.47549 3.845735 1.404012
v -26.47549 3.845735 1.504011
v -26.37549 3.845735 1.404012
v -26.37549 3.845735 -0.09599781
v -38.27549 3.845735 5.404012
v -38.27549 4.045744 5.404012
v -38.37549 3.845735 5.404012
v -38.37549 4.045744 5.404012
v -38.27549 3.845735 4.904012
v -38.27549 3.845735 3.904012
v -38.37549 3.845735 4.904012
v -38.27549 3.845735 1.504011
v -38.37549 2.595734 3.904012
v -38.37549 2.595734 1.504011
v -38.37549 3.845735 1.504011
v -38.37549 3.845735 3.904012
v -38.37549 2.595734 1.404012
v -38.37549 3.845735 1.404012
v -32.47549 3.845735 1.504011
v -38.27549 2.595734 1.404012
v -38.27549 3.845735 1.404012
v -32.37549 3.845735 1.404012
v -32.37549 3.845735 3.904012
v -32.37549 3.845735 1.504011
v -32.47549 3.845735 3.904012
v -32.47549 3.845735 4.904021
v -32.37549 3.845735 4.904021
v -32.47549 2.595734 1.404012
v -32.47549 3.845735 -0.09599781
v -32.47549 3.845735 1.404012
v -32.47549 3.845735 -0.1959982
v -22.37549 3.845735 -0.09599781
v -22.37549 3.845735 -0.1959982
v -22.27549 3.845735 1.504011
v -22.37549 3.845735 1.504011
v -22.37549 3.845735 3.904012
v -22.27549 3.845735 3.904012
v -22.37549 3.845735 4.904021
v -22.27549 3.845735 4.904021
v -22.27549 2.595734 -0.09599781
v -22.27549 3.845735 -0.09599781
v -22.37549 3.845735 1.404012
v -22.27549 2.595734 -0.1959982
v -22.27549 3.845735 -0.1959982
v -22.27549 2.595734 1.404012
v -19.47549 2.595734 1.404012
v -19.47549 3.845735 1.404012
v -22.27549 3.845735 1.404012
v -19.47549 3.845735 1.504011
v -19.37549 2.595734 5.404012
v -19.37549 3.845735 5.404012
v -19.37549 4.045744 5.404012
v -19.47549 4.045744 5.404012
v -19.47549 3.845735 5.404012
v -19.37549 2.595734 4.904012
v -19.37549 3.845735 4.904012
v -19.47549 3.845735 4.904012
v -19.37549 2.595734 1.504011
v -19.37549 2.595734 3.904012
v -19.37549 3.845735 3.904012
v -19.37549 3.845735 1.504011
v -19.47549 3.845735 3.904012
v -19.37549 3.845735 1.404012

vt 7 0.9995332
vt 7.000028 0.9855335
vt 16 -4.599981
vt 12.00001 -4.600309
vt 12 -4.599983
vt 7.1 0.9995371
vt 7.100028 0.9855374
vt 13 0.9997666
vt 13.00003 0.9857669
vt 11.9 -4.599983
vt 6 -4.599985
vt 0 0.9999921
vt 19 0.5000026
vt 19 1
vt 0 1
vt 4 1
vt 12 0.5
vt 12 1
vt 16 1
vt 16 0.5
vt 5.9 1
vt 7.00043 0.2874603
vt 7.10043 0.2874643
vt 6 0.5
vt 6 1
vt 11.9 1
vt 11.9 0.5
vt 0 0.4999949
vt 19 -0.499992
vt 0 0.5
vt 4 0.5
vt 12 -0.5
vt 16 -0.5
vt 5.9 0.5
vt 6.9 -0.5
vt 6.9 0.5
vt 7 0.5
vt 7 -0.5
vt 6 -0.5
vt 11.9 -0.5
vt 0 0.9992609
vt 0.1000004 0.9992647
vt 0.1004314 0.2871919
vt 0.0004310608 0.2871881
vt 18.9 1
vt 18.9 0.5
vt 0.1004314 -0.70296
vt 0.0004310608 -0.7029639
vt 19 -0.5
vt 18.9 -0.5
vt 2.9 0.9993737
vt 2.900028 0.985374
vt 3 0.9993776
vt 3.000028 0.9853779
vt 16.1 -2.99998
vt 18.9 -2.999979
vt 3.000431 0.2873048
vt 2.900431 0.2873008
vt 2.8 0.5
vt 2.8 1
vt 16.1 1
vt 16.1 0.5
vt 2.9 -0.5
vt 2.8 -0.5
vt 2.9 0.5
vt 0 -0.5
vt 16.1 -0.5
vt 0 -0.4999998
vt 0 -2.899987
vt 19 -2.89998
vt 19.00001 -3.000305
vt 19 -2.999979
vt 0 -2.900001
vt 4 -2.900001
vt 4 -0.5
vt 12 -3
vt 12 -2.900001
vt 16 -2.900001
vt 16 -3
vt 5.9 -2.900001
vt 5.9 -0.5
vt 7.10043 -3.178068
vt 7.00043 -3.178071
vt 7.00043 -3.079057
vt 7.00043 -0.7026916
vt 7.10043 -0.7026877
vt 7.10043 -3.079053
vt 6 -3
vt 6 -2.900001
vt 11.9 -2.900001
vt 11.9 -3
vt 0.1004314 -3.17834
vt 0.0004310608 -3.178344
vt 0.0004310608 -3.079329
vt 0.1004314 -3.079325
vt 18.9 -3
vt 18.9 -2.900001
vt 19 -2.900001
vt 3.000431 -3.178227
vt 2.900431 -3.178231
vt 2.900431 -3.079216
vt 2.900431 -0.7028511
vt 3.000431 -0.7028472
vt 3.000431 -3.079212
vt 2.8 -2.900001
vt 16.1 -2.900001
vt 16.1 -3
vt 13.1 0.9997705
vt 13.10003 0.9857708
vt 5.9 -4.599985
vt 13.10043 0.2876977
vt 13.00043 0.2876937
vt 13 -0.5
vt 12.9 -0.5
vt 12.9 0.5
vt 13 0.5
vt 13.00043 -3.177838
vt 13.00043 -3.078823
vt 13.00043 -0.7024582
vt 13.10043 -0.7024543
vt 5.9 -3
vt 18.9 0.9999962
vt 18.90003 0.9859965
vt 19.00003 0.9860003
vt 0.1000004 -2.999986
vt 0 -2.999986
vt 19.00043 0.2879272
vt 18.90043 0.2879232
vt 18.8 0.5
vt 13 1
vt 18.8 1
vt 0.1000004 1
vt 0.1000004 0.5
vt 19.00043 -0.7022248
vt 18.90043 -0.7022287
vt 18.8 -0.5
vt 0.1000004 -0.5
vt 19.00043 -3.177605
vt 18.90043 -3.177608
vt 13.10043 -3.177834
vt 13.10043 -3.07882
vt 19.00043 -3.07859
vt 18.90043 -3.078594
vt 18.8 -2.900001
vt 13 -2.900001
vt 0 -3
vt 0.1000004 -2.900001
vt 0.1000004 -3
vt 4 -3
vt 0 -4.50001
vt 4 -4.50001
vt 1.50001 1
vt 1.50001 0.9
vt 0 0.9
vt 7.00043 -4.663309
vt 5.9 -4.50001
vt 13.00043 -4.663075
vt 13.10043 -4.663072
vt 5.9 -2.999984
vt 5.9 -4.499986
vt 16.1 -4.499981
vt 2.900431 -4.663468
vt 0.0999999 1
vt 0.0999999 -0.5000095
vt 16.1 -4.599981
vt 2.90043 -4.762484
vt 0.1000004 0.9
vt 3.000431 -4.663465
vt 3.000431 -4.76248
vt 4 0.8999996
vt 7.00043 -4.762324
vt 7.10043 -4.663305
vt 7.10043 -4.762321
vt 5.9 0.8999996
vt 13.00043 -4.762091
vt 13.10043 -4.762087
vt 0.1000004 -0.45001
vt 0 -0.45001
vt 0.5 -0.45001
vt 0.5 1
vt 3.900001 -0.45001
vt 3.400001 -0.45001
vt 3.900001 1
vt 3.400001 1
vt 13.00043 0.7827697
vt 13.10043 0.7827736
vt 0.0999999 -0.45001
vt 5.50001 -0.45001
vt 5.00001 -0.45001
vt 5.50001 1
vt 5.00001 1
vt 2.900431 0.7823768
vt 3.000431 0.7823807
vt 7.00043 0.7825363
vt 7.10043 0.7825402
vt 5.9 -0.45001
vt 0 0.7999901
vt 5.9 0.7999901
vt 12.00017 -4.604395
vt 0.1000004 0.7999901
vt 6.000013 -4.600312
vt 11.90001 -4.600309
vt 11.90017 -4.604395
vt 6.00017 -4.604397
vt 11.90019 -4.605048
vt 6.000195 -4.605051
vt 1.5 -0.45001
vt 1.5 0.7999901
vt 3.900001 0.7999901
vt 4.00001 -0.45001
vt 1.600009 1
vt 0.1000004 -0.2500001
vt 0 -0.2500001
vt 1.600009 -0.45001
vt 1.600009 0.7999901
vt 4 0.7999901
vt 5.50001 0.7999901
vt 0.000169754 0.9955802
vt 0.0001945496 0.9949265
vt 19.00037 0.8110039
vt 18.90037 0.8110001
vt 19.00043 0.7830031
vt 18.90043 0.7829993
vt 0.5 0.7999901
vt 0.000169754 0.4955828
vt 0.0001945496 0.4949292
vt 0.000169754 -2.904399
vt 0.000169754 -0.5044118
vt 0.0001945496 -2.905053
vt 0.0001945496 -0.5050654
vt 0.000169754 -3.004398
vt 0.0001945496 -3.005052
vt 5.799999 -0.45001
vt 5.799999 0.7999901
vt 5.799999 1
vt 0.1001701 -3.004398
vt 0.1001949 -3.005052
vt 2.400001 -0.45001
vt 2.400001 0.7999901
vt 2.400001 1
vt 5.900012 -3.000311
vt 5.900012 -4.500312
vt 5.900169 -4.504397
vt 5.900194 -4.505051
vt 5.900194 -3.00505
vt 5.900169 -3.004396
vt 5.900012 -4.600312
vt 5.900169 -4.604397
vt 5.900194 -4.605051
vt 12.00019 -4.605048
vt 0.0999999 -0.2500001
vt 16.10001 -4.500308
vt 16.10017 -4.504394
vt 16.10019 -4.505047
vt 16.10001 -4.600308
vt 16.10017 -4.604393
vt 16.10019 -4.605047
vt 16.00001 -4.600308
vt 16.00017 -4.604393
vt 16.00019 -4.605047
vt 18.90001 -3.000305
vt 18.90017 -3.004391
vt 16.10017 -3.004392
vt 18.90019 -3.005044
vt 16.10019 -3.005045
vt 2.8 -0.45001
vt 2.8 0.7999901
vt 19.00001 0.9996731
vt 19.00017 0.9955879
vt 19.00019 0.9949343
vt 2.765656E-05 0.9852612
vt 0.100028 0.985265
vt 0.1003752 0.8102686
vt 0.000374794 0.8102648
vt 0.1004314 0.7822679
vt 0.0004310608 0.782264
vt 19.00001 0.4996758
vt 19.00017 0.4955906
vt 19.00019 0.4949369
vt 19.00019 -0.5050577
vt 3.400001 0.7999901
vt 19.00017 -0.5044041
vt 19.00017 -2.904392
vt 19.00019 -2.905046
vt 19.00019 -3.005044
vt 19.00017 -3.004391
vt 0.09999943 0.7999901
vt 0.0999999 -9.536743E-06
vt 0 -9.536743E-06
vt 0.4999905 1
vt 0.4999905 0.7999901
vt 5.000019 0.7999901
vt 0.1000004 -9.536743E-06

vn 0 0 1
vn 0 0 -1
vn -1 0 0
vn 1 0 0
vn 0 1 0
vn 0 -1 0
vn 0.5 0 -0.5
vn -0.5 0 -0.5
vn 0.5 0 -0.4999976
vn 0 0.5 0.5
vn -0.4285714 0 -0.5714286
vn -0.6666667 0 -0.3333333
vn -0.3333333 0 -0.6666667
vn -0.25 0 -0.75
vn 0.6 0 -0.3999971
vn 0.3333333 0 -0.6666651
vn 0.5714286 0 -0.4285714
vn 0.4 0 -0.6

usemtl Fence
f 230/274/1 51/272/1 229/271/1
f 230/274/1 233/273/1 51/272/1
f 231/276/10 233/273/1 230/274/1
f 231/276/10 232/275/10 233/273/1
f 36/42/1 14/41/1 229/271/1
f 51/272/1 36/42/1 229/271/1
f 231/276/10 38/44/5 37/43/5
f 231/276/10 37/43/5 232/275/10
f 38/44/5 41/48/5 40/47/5
f 38/44/5 40/47/5 37/43/5
f 41/48/5 83/94/5 84/95/5
f 41/48/5 84/95/5 40/47/5
f 83/94/5 82/93/5 81/92/5
f 83/94/5 81/92/5 84/95/5
f 44/52/1 43/51/1 36/42/1
f 44/52/1 36/42/1 51/272/1
f 15/54/1 17/53/1 43/51/1
f 15/54/1 43/51/1 44/52/1
f 165/192/10 15/54/1 44/52/1
f 165/192/10 166/193/10 15/54/1
f 15/54/1 1/1/1 17/53/1
f 15/54/1 2/2/1 1/1/1
f 7/7/1 6/6/1 1/1/1
f 7/7/1 1/1/1 2/2/1
f 167/194/10 7/7/1 2/2/1
f 167/194/10 168/195/10 7/7/1
f 9/9/1 8/8/1 6/6/1
f 9/9/1 6/6/1 7/7/1
f 96/109/1 95/108/1 8/8/1
f 96/109/1 8/8/1 9/9/1
f 163/185/10 96/109/1 9/9/1
f 163/185/10 164/186/10 96/109/1
f 111/123/1 110/122/1 95/108/1
f 111/123/1 95/108/1 96/109/1
f 112/124/1 12/14/1 110/122/1
f 112/124/1 110/122/1 111/123/1
f 186/220/1 112/124/1 111/123/1
f 186/220/1 111/123/1 184/221/1
f 185/223/10 186/220/1 184/221/1
f 185/223/10 187/222/10 186/220/1
f 185/223/10 116/128/5 115/127/5
f 185/223/10 115/127/5 187/222/10
f 116/128/5 120/135/5 119/134/5
f 116/128/5 119/134/5 115/127/5
f 120/135/5 128/143/5 127/142/5
f 120/135/5 127/142/5 119/134/5
f 128/143/5 124/139/5 123/138/5
f 128/143/5 123/138/5 127/142/5
f 126/141/5 125/140/5 124/139/5
f 126/141/5 124/139/5 128/143/5
f 106/119/5 105/118/5 126/141/5
f 106/119/5 126/141/5 107/120/5
f 105/118/5 104/117/5 125/140/5
f 105/118/5 125/140/5 126/141/5
f 145/157/5 125/140/5 104/117/5
f 145/157/5 146/158/5 125/140/5
f 159/175/5 146/158/5 145/157/5
f 159/175/5 160/176/5 146/158/5
f 157/173/5 145/157/5 156/172/5
f 157/173/5 159/175/5 145/157/5
f 74/85/5 73/84/5 76/87/5
f 74/85/5 76/87/5 75/86/5
f 73/84/5 72/83/5 71/82/5
f 73/84/5 71/82/5 76/87/5
f 138/155/5 71/82/5 72/83/5
f 138/155/5 156/172/5 71/82/5
f 155/171/5 156/172/5 138/155/5
f 155/171/5 157/173/5 156/172/5
f 154/169/5 138/155/5 153/168/5
f 154/169/5 155/171/5 138/155/5
f 89/102/5 88/101/5 91/104/5
f 89/102/5 91/104/5 90/103/5
f 88/101/5 87/100/5 86/99/5
f 88/101/5 86/99/5 91/104/5
f 149/162/5 86/99/5 87/100/5
f 149/162/5 153/168/5 86/99/5
f 151/166/5 153/168/5 149/162/5
f 151/166/5 154/169/5 153/168/5
f 88/101/5 81/92/5 87/100/5
f 88/101/5 84/95/5 81/92/5
f 47/57/5 89/102/5 90/103/5
f 47/57/5 48/58/5 89/102/5
f 165/192/10 48/58/5 47/57/5
f 165/192/10 47/57/5 166/193/10
f 20/23/5 74/85/5 75/86/5
f 20/23/5 19/22/5 74/85/5
f 167/194/10 19/22/5 20/23/5
f 167/194/10 20/23/5 168/195/10
f 98/111/5 106/119/5 107/120/5
f 98/111/5 99/112/5 106/119/5
f 163/185/10 99/112/5 98/111/5
f 163/185/10 98/111/5 164/186/10
f 237/98/4 240/283/4 239/282/4
f 238/49/4 237/98/4 239/282/4
f 235/278/4 234/277/4 239/282/4
f 234/277/4 238/49/4 239/282/4
f 38/279/4 235/278/4 41/280/4
f 235/278/4 239/282/4 41/280/4
f 41/280/4 239/282/4 83/284/4
f 239/282/4 240/283/4 83/284/4
f 231/270/4 230/269/4 38/279/4
f 230/269/4 235/278/4 38/279/4
f 234/277/4 235/278/4 230/269/4
f 229/268/4 234/277/4 230/269/4
f 229/268/4 14/14/4 234/277/4
f 14/14/4 13/13/4 234/277/4
f 234/277/4 13/13/4 238/49/4
f 13/13/4 25/29/4 238/49/4
f 238/49/4 25/29/4 237/98/4
f 25/29/4 59/70/4 237/98/4
f 237/98/4 59/70/4 60/71/7
f 59/70/4 61/72/7 60/71/7
f 240/283/4 237/98/4 242/286/18
f 237/98/4 60/71/7 242/286/18
f 226/262/2 225/261/2 227/263/7
f 225/261/2 224/107/17 227/263/7
f 225/261/2 46/56/2 224/107/17
f 46/56/2 45/55/7 224/107/17
f 60/71/7 46/56/2 225/261/2
f 60/71/7 61/72/7 46/56/2
f 225/261/2 226/262/2 242/286/18
f 60/71/7 225/261/2 242/286/18
f 81/264/2 226/262/2 87/265/16
f 226/262/2 227/263/7 87/265/16
f 226/262/2 81/264/2 82/285/2
f 242/286/18 226/262/2 82/285/2
f 227/263/7 224/107/17 220/253/4
f 224/107/17 219/252/4 220/253/4
f 87/265/16 227/263/7 149/254/4
f 227/263/7 220/253/4 149/254/4
f 148/161/4 224/107/17 45/55/7
f 148/161/4 219/252/4 224/107/17
f 222/255/15 223/256/9 220/253/4
f 219/252/4 222/255/15 220/253/4
f 150/165/9 219/252/4 148/161/4
f 150/165/9 222/255/15 219/252/4
f 223/256/9 151/257/16 149/254/4
f 220/253/4 223/256/9 149/254/4
f 152/258/2 212/259/2 223/256/9
f 222/255/15 152/258/2 223/256/9
f 5/5/2 4/4/2 152/258/2
f 3/3/2 5/5/2 152/258/2
f 222/255/15 150/165/9 152/258/2
f 150/165/9 3/3/2 152/258/2
f 212/259/2 154/260/2 151/257/16
f 223/256/9 212/259/2 151/257/16
f 154/260/2 212/259/2 155/250/2
f 212/259/2 171/199/2 155/250/2
f 212/259/2 152/258/2 171/199/2
f 152/258/2 4/4/2 171/199/2
f 174/203/2 173/202/2 172/204/2
f 173/202/2 158/201/2 172/204/2
f 157/205/2 174/203/2 159/206/2
f 174/203/2 172/204/2 159/206/2
f 174/203/2 157/205/2 155/250/2
f 171/199/2 174/203/2 155/250/2
f 173/202/2 174/203/2 171/199/2
f 4/4/2 173/202/2 171/199/2
f 4/4/2 5/5/2 173/202/2
f 5/5/2 10/10/2 173/202/2
f 173/202/2 10/10/2 158/201/2
f 10/10/2 11/11/2 158/201/2
f 162/247/13 210/248/14 172/204/2
f 158/201/2 162/247/13 172/204/2
f 158/201/2 11/11/2 162/247/13
f 11/11/2 97/110/2 162/247/13
f 210/248/14 160/249/2 159/206/2
f 172/204/2 210/248/14 159/206/2
f 146/244/3 208/243/3 209/246/8
f 146/244/3 209/246/8 125/245/8
f 208/243/3 161/242/3 207/241/8
f 208/243/3 207/241/8 209/246/8
f 208/243/3 162/247/13 161/242/3
f 208/243/3 210/248/14 162/247/13
f 161/242/3 109/159/8 207/241/8
f 161/242/3 147/160/3 109/159/8
f 209/246/8 207/241/8 200/236/2
f 207/241/8 199/148/2 200/236/2
f 125/245/8 209/246/8 124/237/2
f 209/246/8 200/236/2 124/237/2
f 207/241/8 109/159/8 199/148/2
f 109/159/8 113/125/2 199/148/2
f 200/236/2 199/148/2 197/231/11
f 199/148/2 196/146/8 197/231/11
f 199/148/2 113/125/2 196/146/8
f 113/125/2 114/126/8 196/146/8
f 197/231/11 123/232/12 124/237/2
f 200/236/2 197/231/11 124/237/2
f 195/228/3 193/73/3 192/66/3
f 195/228/3 194/227/3 193/73/3
f 197/231/11 196/146/8 193/73/3
f 197/231/11 193/73/3 194/227/3
f 127/229/3 194/227/3 195/228/3
f 127/229/3 195/228/3 119/230/3
f 123/232/12 197/231/11 194/227/3
f 123/232/12 194/227/3 127/229/3
f 193/73/3 58/69/3 57/68/3
f 193/73/3 57/68/3 192/66/3
f 196/146/8 114/126/8 58/69/3
f 196/146/8 58/69/3 193/73/3
f 192/66/3 57/68/3 23/28/3
f 192/66/3 23/28/3 24/28/3
f 195/228/3 192/66/3 24/28/3
f 195/228/3 24/28/3 190/225/3
f 119/230/3 195/228/3 190/225/3
f 119/230/3 190/225/3 115/226/3
f 186/218/3 24/28/3 112/12/3
f 186/218/3 190/225/3 24/28/3
f 115/226/3 190/225/3 186/218/3
f 115/226/3 186/218/3 187/219/3
f 24/28/3 23/28/3 12/12/3
f 24/28/3 12/12/3 112/12/3
f 17/19/6 1/18/6 16/17/6
f 16/17/6 18/20/6 17/19/6
f 6/26/6 8/25/6 21/24/6
f 21/24/6 22/27/6 6/26/6
f 1/18/6 6/26/6 22/27/6
f 22/27/6 16/17/6 1/18/6
f 18/20/6 16/17/6 28/32/6
f 28/32/6 29/33/6 18/20/6
f 22/27/6 21/24/6 34/39/6
f 34/39/6 35/40/6 22/27/6
f 28/32/6 16/17/6 22/27/6
f 22/27/6 35/40/6 28/32/6
f 14/14/6 36/45/6 39/46/6
f 39/46/6 13/13/6 14/14/6
f 13/13/6 39/46/6 42/50/6
f 42/50/6 25/49/6 13/13/6
f 43/61/6 17/19/6 18/20/6
f 18/20/6 52/62/6 43/61/6
f 36/45/6 43/61/6 52/62/6
f 52/62/6 39/46/6 36/45/6
f 52/62/6 18/20/6 29/33/6
f 29/33/6 56/67/6 52/62/6
f 39/46/6 52/62/6 56/67/6
f 56/67/6 42/50/6 39/46/6
f 66/78/6 65/77/6 64/76/6
f 64/76/6 67/79/6 66/78/6
f 29/33/6 28/32/6 65/77/6
f 65/77/6 66/78/6 29/33/6
f 79/90/6 78/89/6 77/88/6
f 77/88/6 80/91/6 79/90/6
f 35/40/6 34/39/6 78/89/6
f 78/89/6 79/90/6 35/40/6
f 28/32/6 35/40/6 79/90/6
f 79/90/6 65/77/6 28/32/6
f 65/77/6 79/90/6 80/91/6
f 80/91/6 64/76/6 65/77/6
f 59/98/6 85/97/6 46/96/6
f 46/96/6 61/71/6 59/98/6
f 25/49/6 42/50/6 85/97/6
f 85/97/6 59/98/6 25/49/6
f 94/106/6 66/78/6 67/79/6
f 67/79/6 45/107/6 94/106/6
f 56/67/6 29/33/6 66/78/6
f 66/78/6 94/106/6 56/67/6
f 46/96/6 85/97/6 94/106/6
f 94/106/6 45/107/6 46/96/6
f 85/97/6 42/50/6 56/67/6
f 56/67/6 94/106/6 85/97/6
f 8/25/6 95/21/6 100/34/6
f 100/34/6 21/24/6 8/25/6
f 21/24/6 100/34/6 103/81/6
f 103/81/6 34/39/6 21/24/6
f 78/89/6 108/80/6 109/121/6
f 109/121/6 77/88/6 78/89/6
f 34/39/6 103/81/6 108/80/6
f 108/80/6 78/89/6 34/39/6
f 110/132/6 12/15/6 23/30/6
f 23/30/6 118/133/6 110/132/6
f 95/21/6 110/132/6 118/133/6
f 118/133/6 100/34/6 95/21/6
f 118/133/6 23/30/6 57/66/6
f 57/66/6 122/137/6 118/133/6
f 100/34/6 118/133/6 122/137/6
f 122/137/6 103/81/6 100/34/6
f 131/147/6 58/73/6 114/146/6
f 114/146/6 113/148/6 131/147/6
f 108/80/6 131/147/6 113/148/6
f 113/148/6 109/121/6 108/80/6
f 122/137/6 57/66/6 58/73/6
f 58/73/6 131/147/6 122/137/6
f 103/81/6 122/137/6 131/147/6
f 131/147/6 108/80/6 103/81/6
f 136/154/3 64/153/3 133/152/3
f 133/152/3 135/15/3 136/154/3
f 137/75/6 67/16/6 64/15/6
f 64/15/6 136/66/6 137/75/6
f 134/152/4 132/15/4 67/154/4
f 67/154/4 137/153/4 134/152/4
f 135/152/4 133/15/4 64/154/4
f 64/154/4 136/153/4 135/152/4
f 136/137/6 64/132/6 80/15/6
f 80/15/6 143/66/6 136/137/6
f 144/154/3 77/153/3 140/152/3
f 140/152/3 142/15/3 144/154/3
f 143/81/6 80/21/6 77/15/6
f 77/15/6 144/66/6 143/81/6
f 142/152/4 140/15/4 77/154/4
f 77/154/4 144/153/4 142/152/4
f 144/137/6 77/132/6 109/15/6
f 109/15/6 147/66/6 144/137/6
f 137/154/3 67/153/3 132/152/3
f 132/152/3 134/15/3 137/154/3
f 148/164/6 45/163/6 67/15/6
f 67/15/6 137/66/6 148/164/6
f 3/154/3 137/167/3 134/132/3
f 134/132/3 152/15/3 3/154/3
f 150/167/6 148/163/6 137/15/6
f 137/15/6 3/154/6 150/167/6
f 5/154/3 136/167/3 135/132/3
f 135/132/3 4/15/3 5/154/3
f 3/170/6 137/16/6 136/15/6
f 136/15/6 5/154/6 3/170/6
f 152/132/4 134/15/4 137/154/4
f 137/154/4 3/167/4 152/132/4
f 4/132/4 135/15/4 136/154/4
f 136/154/4 5/167/4 4/132/4
f 5/167/6 136/132/6 143/15/6
f 143/15/6 10/154/6 5/167/6
f 11/154/3 144/167/3 142/132/3
f 142/132/3 158/15/3 11/154/3
f 10/174/6 143/21/6 144/15/6
f 144/15/6 11/154/6 10/174/6
f 158/132/4 142/15/4 144/154/4
f 144/154/4 11/167/4 158/132/4
f 97/154/3 147/167/3 161/132/3
f 161/132/3 162/15/3 97/154/3
f 11/167/6 144/132/6 147/15/6
f 147/15/6 97/154/6 11/167/6
f 172/197/3 158/178/3 142/177/3
f 142/177/3 169/200/3 172/197/3
f 159/15/3 172/197/3 169/200/3
f 169/200/3 145/132/3 159/15/3
f 20/15/1 178/197/1 179/200/1
f 179/200/1 19/132/1 20/15/1
f 4/177/4 171/200/4 183/197/4
f 183/197/4 135/178/4 4/177/4
f 171/200/4 155/132/4 138/15/4
f 138/15/4 183/197/4 171/200/4
f 98/15/1 205/197/1 206/200/1
f 206/200/1 99/132/1 98/15/1
f 158/177/4 172/200/4 169/197/4
f 169/197/4 142/178/4 158/177/4
f 172/200/4 159/132/4 145/15/4
f 145/15/4 169/197/4 172/200/4
f 160/15/3 210/197/3 208/200/3
f 208/200/3 146/132/3 160/15/3
f 152/177/4 212/200/4 211/197/4
f 211/197/4 134/178/4 152/177/4
f 212/200/4 154/132/4 153/15/4
f 153/15/4 211/197/4 212/200/4
f 171/197/3 4/178/3 135/177/3
f 135/177/3 183/200/3 171/197/3
f 155/15/3 171/197/3 183/200/3
f 183/200/3 138/132/3 155/15/3
f 47/15/1 217/197/1 218/200/1
f 218/200/1 48/132/1 47/15/1
f 212/197/3 152/178/3 134/177/3
f 134/177/3 211/200/3 212/197/3
f 154/15/3 212/197/3 211/200/3
f 211/200/3 153/132/3 154/15/3
f 82/163/4 83/15/4 240/197/4
f 240/197/4 242/287/4 82/163/4

usemtl Flow
f 141/150/5 140/121/5 139/146/5
f 141/150/5 142/156/5 140/121/5
f 68/73/5 139/146/5 140/121/5
f 68/73/5 140/121/5 69/80/5
f 33/66/5 68/73/5 69/80/5
f 33/66/5 69/80/5 70/81/5
f 30/30/5 33/66/5 70/81/5
f 30/30/5 70/81/5 31/34/5
f 7/15/5 30/30/5 31/34/5
f 7/15/5 31/34/5 9/21/5
f 134/150/5 133/149/5 132/146/5
f 134/150/5 135/151/5 133/149/5
f 62/73/5 132/146/5 133/149/5
f 62/73/5 133/149/5 63/74/5
f 53/66/5 62/73/5 63/74/5
f 53/66/5 63/74/5 32/75/5
f 26/30/5 53/66/5 32/75/5
f 26/30/5 32/75/5 27/31/5
f 15/15/5 26/30/5 27/31/5
f 15/15/5 27/31/5 2/16/5
f 51/15/5 50/30/5 49/59/5
f 51/15/5 49/59/5 44/60/5
f 50/30/5 55/66/5 54/64/5
f 50/30/5 54/64/5 49/59/5
f 54/64/5 92/73/5 93/105/5
f 54/64/5 55/66/5 92/73/5
f 96/130/5 102/116/5 117/129/5
f 96/130/5 117/129/5 111/131/5
f 102/116/5 101/113/5 121/136/5
f 102/116/5 121/136/5 117/129/5
f 101/113/5 130/145/5 129/144/5
f 101/113/5 129/144/5 121/136/5

usemtl Wall-bath
f 213/197/1 93/178/1 92/266/1
f 213/197/1 92/266/1 228/267/1
f 88/15/1 213/197/1 228/267/1
f 88/15/1 228/267/1 84/60/1
f 241/239/3 92/178/3 55/238/3
f 241/239/3 228/197/3 92/178/3
f 241/239/3 55/238/3 50/182/3
f 241/239/3 50/182/3 236/281/3
f 37/184/3 236/281/3 233/209/3
f 37/184/3 233/209/3 232/183/3
f 84/15/3 228/197/3 241/239/3
f 84/15/3 241/239/3 40/240/3
f 40/240/3 241/239/3 236/281/3
f 40/240/3 236/281/3 37/184/3
f 233/209/3 50/182/3 51/181/3
f 233/209/3 236/281/3 50/182/3
f 48/290/4 216/208/4 89/152/4
f 48/290/4 218/291/4 216/208/4
f 48/180/4 44/178/4 49/179/4
f 48/180/4 165/15/4 44/178/4
f 89/152/4 216/208/4 88/183/4
f 216/208/4 213/209/4 88/183/4
f 93/181/4 213/209/4 216/208/4
f 54/207/4 93/181/4 216/208/4

usemtl Wall-bedroom
f 166/190/3 26/189/3 15/188/3
f 166/190/3 47/191/3 26/189/3
f 217/292/3 90/16/3 215/216/3
f 217/292/3 47/191/3 90/16/3
f 91/211/3 214/215/3 215/216/3
f 91/211/3 215/216/3 90/16/3
f 215/216/3 62/214/3 53/210/3
f 215/216/3 214/215/3 62/214/3
f 211/197/3 134/178/3 132/207/3
f 211/197/3 132/207/3 221/208/3
f 153/15/3 211/197/3 221/208/3
f 153/15/3 221/208/3 86/152/3
f 221/208/3 132/207/3 62/214/3
f 221/208/3 62/214/3 214/215/3
f 86/152/3 221/208/3 214/215/3
f 86/152/3 214/215/3 91/211/3
f 183/197/1 135/178/1 134/210/1
f 183/197/1 134/210/1 211/216/1
f 138/15/1 183/197/1 211/216/1
f 138/15/1 211/216/1 153/16/1
f 63/181/4 176/209/4 175/208/4
f 32/207/4 63/181/4 175/208/4
f 74/152/4 175/208/4 73/183/4
f 175/208/4 176/209/4 73/183/4
f 19/290/4 175/208/4 74/152/4
f 19/290/4 179/291/4 175/208/4
f 19/180/4 2/178/4 27/179/4
f 19/180/4 167/15/4 2/178/4
f 182/216/4 133/210/4 183/217/4
f 133/210/4 135/188/4 183/217/4
f 72/16/4 182/216/4 138/190/4
f 182/216/4 183/217/4 138/190/4
f 73/183/4 176/209/4 72/16/4
f 176/209/4 182/216/4 72/16/4
f 176/209/4 63/181/4 182/216/4
f 63/181/4 133/210/4 182/216/4

usemtl Wall-mainroom
f 169/197/1 142/178/1 141/196/1
f 169/197/1 141/196/1 170/198/1
f 145/15/1 169/197/1 170/198/1
f 145/15/1 170/198/1 156/21/1
f 168/190/3 30/189/3 7/188/3
f 168/190/3 20/191/3 30/189/3
f 178/292/3 75/16/3 177/216/3
f 178/292/3 20/191/3 75/16/3
f 180/208/3 139/207/3 68/214/3
f 180/208/3 68/214/3 181/215/3
f 170/197/3 141/178/3 139/207/3
f 170/197/3 139/207/3 180/208/3
f 156/15/3 170/197/3 180/208/3
f 156/15/3 180/208/3 71/152/3
f 76/211/3 181/215/3 177/216/3
f 76/211/3 177/216/3 75/16/3
f 71/152/3 180/208/3 181/215/3
f 71/152/3 181/215/3 76/211/3
f 177/216/3 68/214/3 33/210/3
f 177/216/3 181/215/3 68/214/3
f 69/181/4 203/209/4 202/208/4
f 70/207/4 69/181/4 202/208/4
f 201/216/4 140/210/4 169/217/4
f 140/210/4 142/188/4 169/217/4
f 104/16/4 201/216/4 145/190/4
f 201/216/4 169/217/4 145/190/4
f 105/183/4 203/209/4 104/16/4
f 203/209/4 201/216/4 104/16/4
f 203/209/4 69/181/4 201/216/4
f 69/181/4 140/210/4 201/216/4
f 106/152/4 202/208/4 105/183/4
f 202/208/4 203/209/4 105/183/4
f 99/290/4 202/208/4 106/152/4
f 99/290/4 206/291/4 202/208/4
f 99/180/4 9/178/4 31/179/4
f 99/180/4 163/15/4 9/178/4

usemtl Wall-kiychen
f 204/239/3 130/178/3 101/238/3
f 204/239/3 198/197/3 130/178/3
f 126/15/3 198/197/3 204/239/3
f 126/15/3 204/239/3 107/240/3
f 205/281/3 107/240/3 204/239/3
f 205/281/3 98/184/3 107/240/3
f 164/183/3 102/182/3 96/181/3
f 164/183/3 98/184/3 102/182/3
f 191/197/1 129/178/1 130/233/1
f 191/197/1 130/233/1 198/234/1
f 128/15/1 191/197/1 198/234/1
f 128/15/1 198/234/1 126/235/1
f 188/224/4 117/179/4 189/208/4
f 117/179/4 121/207/4 189/208/4
f 185/15/4 184/197/4 116/180/4
f 184/197/4 188/224/4 116/180/4
f 116/180/4 188/224/4 120/152/4
f 188/224/4 189/208/4 120/152/4
f 120/152/4 189/208/4 128/183/4
f 189/208/4 191/209/4 128/183/4
f 129/181/4 191/209/4 189/208/4
f 121/207/4 129/181/4 189/208/4
f 117/179/4 188/224/4 184/197/4
f 111/178/4 117/179/4 184/197/4

usemtl baseboard
f 30/37/5 27/36/5 32/35/5 33/38/5
f 26/65/5 49/59/5 54/64/5 53/63/5
f 102/116/5 31/115/5 70/114/5 101/113/5
f 98/132/2 99/15/2 31/178/2 102/177/2
f 47/163/2 48/15/2 49/178/2 26/187/2
f 20/132/2 19/15/2 27/178/2 30/177/2
f 175/132/1 177/15/1 33/213/1 32/212/1
f 202/132/1 204/15/1 101/213/1 70/212/1
f 216/163/1 215/15/1 53/213/1 54/251/1
f 218/132/6 217/15/6 215/289/6 216/288/6
f 179/132/6 178/15/6 177/289/6 175/293/6
f 206/132/6 205/15/6 204/289/6 202/293/6

